<svg width="171" height="63" viewBox="0 0 171 63" fill="none" xmlns="http://www.w3.org/2000/svg">
<rect width="60" height="63" rx="5" fill="#FFF9DD"/>
<path d="M47 28.5H45.5V15C45.5 14.6022 45.342 14.2206 45.0607 13.9393C44.7794 13.658 44.3978 13.5 44 13.5H14C13.6022 13.5 13.2206 13.658 12.9393 13.9393C12.658 14.2206 12.5 14.6022 12.5 15V28.5H11C10.6022 28.5 10.2206 28.658 9.93934 28.9393C9.65804 29.2206 9.5 29.6022 9.5 30V48C9.5 48.3978 9.65804 48.7794 9.93934 49.0607C10.2206 49.342 10.6022 49.5 11 49.5H14V51C14 51.3978 14.158 51.7794 14.4393 52.0607C14.7206 52.342 15.1022 52.5 15.5 52.5C15.8978 52.5 16.2794 52.342 16.5607 52.0607C16.842 51.7794 17 51.3978 17 51V49.5H41V51C41 51.3978 41.158 51.7794 41.4393 52.0607C41.7206 52.342 42.1022 52.5 42.5 52.5C42.8978 52.5 43.2794 52.342 43.5607 52.0607C43.842 51.7794 44 51.3978 44 51V49.5H47C47.3978 49.5 47.7794 49.342 48.0607 49.0607C48.342 48.7794 48.5 48.3978 48.5 48V30C48.5 29.6022 48.342 29.2206 48.0607 28.9393C47.7794 28.658 47.3978 28.5 47 28.5ZM15.5 16.5H42.5V28.5H39.5C39.1022 28.5 38.7206 28.658 38.4393 28.9393C38.158 29.2206 38 29.6022 38 30V34.5H20V30C20 29.6022 19.842 29.2206 19.5607 28.9393C19.2794 28.658 18.8978 28.5 18.5 28.5H15.5V16.5ZM20 37.5H38V40.5H20V37.5ZM45.5 46.5H12.5V31.5H17V42C17 42.3978 17.158 42.7794 17.4393 43.0607C17.7206 43.342 18.1022 43.5 18.5 43.5H39.5C39.8978 43.5 40.2794 43.342 40.5607 43.0607C40.842 42.7794 41 42.3978 41 42V31.5H45.5V46.5Z" fill="#D8CFAA"/>
<path d="M70.6719 25H68.3281L74.8438 7.9375H76.3086V9.4375L70.6719 25ZM75.3711 9.4375V7.9375H76.8359L83.3633 25H81.0312L75.3711 9.4375ZM80.75 20.5352H71.1523V18.6953H80.75V20.5352ZM87.5117 25H85.3203V12.3203H87.4531L87.5117 14.3125V25ZM91.4609 14.2539C91.2734 14.2148 91.0977 14.1914 90.9336 14.1836C90.7773 14.168 90.5977 14.1602 90.3945 14.1602C89.7305 14.1602 89.168 14.2969 88.707 14.5703C88.2539 14.8438 87.9023 15.2227 87.6523 15.707C87.4023 16.1836 87.2461 16.7305 87.1836 17.3477L86.5625 17.6992C86.5625 16.6758 86.6992 15.7422 86.9727 14.8984C87.2461 14.0469 87.6719 13.3672 88.25 12.8594C88.8359 12.3438 89.5859 12.0859 90.5 12.0859C90.6484 12.0859 90.8242 12.1055 91.0273 12.1445C91.2383 12.1758 91.3828 12.2109 91.4609 12.25V14.2539ZM99.3711 13.9727H92.5039V12.3203H99.3711V13.9727ZM97.0039 9.23828V21.8594C97.0039 22.2969 97.0703 22.625 97.2031 22.8438C97.3359 23.0625 97.5078 23.207 97.7188 23.2773C97.9297 23.3477 98.1562 23.3828 98.3984 23.3828C98.5781 23.3828 98.7656 23.3672 98.9609 23.3359C99.1641 23.3047 99.3125 23.2773 99.4062 23.2539V25C99.2344 25.0547 99.0117 25.1055 98.7383 25.1523C98.4648 25.207 98.1328 25.2344 97.7422 25.2344C97.2109 25.2344 96.7227 25.1289 96.2773 24.918C95.832 24.707 95.4766 24.3555 95.2109 23.8633C94.9453 23.3633 94.8125 22.6914 94.8125 21.8477V9.23828H97.0039ZM103.238 7.71484C103.66 7.71484 103.98 7.83594 104.199 8.07812C104.426 8.32031 104.539 8.61328 104.539 8.95703C104.539 9.29297 104.426 9.58203 104.199 9.82422C103.98 10.0586 103.66 10.1758 103.238 10.1758C102.816 10.1758 102.496 10.0586 102.277 9.82422C102.066 9.58203 101.961 9.29297 101.961 8.95703C101.961 8.61328 102.066 8.32031 102.277 8.07812C102.496 7.83594 102.816 7.71484 103.238 7.71484ZM104.34 25H102.16V12.3203H104.34V25ZM112.555 25.2344C111.438 25.2344 110.492 25.0352 109.719 24.6367C108.945 24.2383 108.359 23.7266 107.961 23.1016C107.562 22.4688 107.363 21.8008 107.363 21.0977H109.555C109.594 21.6914 109.766 22.1641 110.07 22.5156C110.383 22.8594 110.762 23.1055 111.207 23.2539C111.66 23.4023 112.109 23.4766 112.555 23.4766C113.148 23.4766 113.645 23.3984 114.043 23.2422C114.449 23.0781 114.754 22.8594 114.957 22.5859C115.168 22.3047 115.273 21.9883 115.273 21.6367C115.273 21.3242 115.203 21.0352 115.062 20.7695C114.93 20.4961 114.656 20.25 114.242 20.0312C113.828 19.8047 113.203 19.6055 112.367 19.4336C111.43 19.2383 110.617 18.9922 109.93 18.6953C109.25 18.3906 108.723 18.0039 108.348 17.5352C107.98 17.0664 107.797 16.4844 107.797 15.7891C107.797 15.1172 107.988 14.5039 108.371 13.9492C108.762 13.3867 109.309 12.9375 110.012 12.6016C110.723 12.2578 111.551 12.0859 112.496 12.0859C113.512 12.0859 114.379 12.2656 115.098 12.625C115.824 12.9766 116.379 13.4531 116.762 14.0547C117.145 14.6484 117.336 15.3086 117.336 16.0352H115.145C115.145 15.5117 114.914 15.0156 114.453 14.5469C114 14.0781 113.348 13.8438 112.496 13.8438C111.902 13.8438 111.418 13.9375 111.043 14.125C110.676 14.3047 110.406 14.5391 110.234 14.8281C110.07 15.1094 109.988 15.4062 109.988 15.7188C109.988 16.0312 110.066 16.3047 110.223 16.5391C110.379 16.7656 110.664 16.9688 111.078 17.1484C111.5 17.3281 112.109 17.5078 112.906 17.6875C113.945 17.9219 114.801 18.2031 115.473 18.5312C116.145 18.8594 116.645 19.2617 116.973 19.7383C117.301 20.2148 117.465 20.7969 117.465 21.4844C117.465 22.2188 117.262 22.8711 116.855 23.4414C116.449 24.0039 115.879 24.4453 115.145 24.7656C114.41 25.0781 113.547 25.2344 112.555 25.2344ZM127.766 16.3047C127.766 15.5469 127.539 14.9453 127.086 14.5C126.641 14.0469 125.98 13.8203 125.105 13.8203C124.566 13.8203 124.09 13.9141 123.676 14.1016C123.27 14.2891 122.953 14.5352 122.727 14.8398C122.5 15.1445 122.387 15.4766 122.387 15.8359H120.195C120.195 15.2266 120.402 14.6367 120.816 14.0664C121.23 13.4883 121.812 13.0156 122.562 12.6484C123.32 12.2734 124.211 12.0859 125.234 12.0859C126.156 12.0859 126.973 12.2422 127.684 12.5547C128.395 12.8672 128.949 13.3398 129.348 13.9727C129.754 14.5977 129.957 15.3828 129.957 16.3281V22.2344C129.957 22.6562 129.992 23.1055 130.062 23.582C130.141 24.0586 130.254 24.4688 130.402 24.8125V25H128.117C128.008 24.75 127.922 24.418 127.859 24.0039C127.797 23.582 127.766 23.1914 127.766 22.832V16.3047ZM128.141 18.8359H125.984C124.75 18.8359 123.797 19.0312 123.125 19.4219C122.453 19.8125 122.117 20.3984 122.117 21.1797C122.117 21.7891 122.32 22.3047 122.727 22.7266C123.141 23.1484 123.742 23.3594 124.531 23.3594C125.195 23.3594 125.781 23.2188 126.289 22.9375C126.797 22.6562 127.199 22.3086 127.496 21.8945C127.793 21.4805 127.953 21.082 127.977 20.6992L128.914 21.7422C128.859 22.0703 128.711 22.4336 128.469 22.832C128.227 23.2305 127.902 23.6133 127.496 23.9805C127.098 24.3398 126.621 24.6406 126.066 24.8828C125.52 25.1172 124.902 25.2344 124.215 25.2344C123.355 25.2344 122.602 25.0703 121.953 24.7422C121.312 24.4062 120.812 23.9531 120.453 23.3828C120.102 22.8125 119.926 22.1797 119.926 21.4844C119.926 20.1172 120.441 19.082 121.473 18.3789C122.504 17.668 123.891 17.3125 125.633 17.3125H128.141V18.8359ZM135.559 25H133.367V12.3203H135.441L135.559 15.0273V25ZM134.129 18.1328C134.145 16.9766 134.367 15.9453 134.797 15.0391C135.227 14.125 135.824 13.4062 136.59 12.8828C137.363 12.3516 138.262 12.0859 139.285 12.0859C140.121 12.0859 140.84 12.2422 141.441 12.5547C142.051 12.8594 142.52 13.3477 142.848 14.0195C143.184 14.6914 143.352 15.582 143.352 16.6914V25H141.16V16.668C141.16 16.0039 141.062 15.4688 140.867 15.0625C140.68 14.6562 140.398 14.3633 140.023 14.1836C139.648 13.9961 139.188 13.9023 138.641 13.9023C138.102 13.9023 137.613 14.0156 137.176 14.2422C136.738 14.4688 136.359 14.7812 136.039 15.1797C135.719 15.5781 135.473 16.0352 135.301 16.5508C135.129 17.0586 135.043 17.5977 135.043 18.168L134.129 18.1328ZM82.543 49.5859C82.4258 50.6562 82.1172 51.6211 81.6172 52.4805C81.1172 53.332 80.4102 54.0039 79.4961 54.4961C78.582 54.9883 77.4375 55.2344 76.0625 55.2344C74.7266 55.2344 73.5586 54.9102 72.5586 54.2617C71.5586 53.6055 70.7812 52.6836 70.2266 51.4961C69.6719 50.3086 69.3945 48.9219 69.3945 47.3359V45.6133C69.3945 44.0195 69.6719 42.6328 70.2266 41.4531C70.7891 40.2656 71.5859 39.3438 72.6172 38.6875C73.6484 38.0312 74.8672 37.7031 76.2734 37.7031C77.5625 37.7031 78.6523 37.9453 79.543 38.4297C80.4336 38.9062 81.125 39.5742 81.6172 40.4336C82.1172 41.293 82.4258 42.2852 82.543 43.4102H80.2695C80.0977 42.2148 79.7148 41.2734 79.1211 40.5859C78.5352 39.8906 77.5859 39.543 76.2734 39.543C75.2656 39.543 74.4219 39.7969 73.7422 40.3047C73.0625 40.8047 72.5469 41.5078 72.1953 42.4141C71.8516 43.3203 71.6797 44.3789 71.6797 45.5898V47.3359C71.6797 48.4531 71.8359 49.4727 72.1484 50.3945C72.4609 51.3086 72.9375 52.0391 73.5781 52.5859C74.2266 53.1328 75.0547 53.4062 76.0625 53.4062C77.0234 53.4062 77.7852 53.2539 78.3477 52.9492C78.918 52.6445 79.3477 52.207 79.6367 51.6367C79.9336 51.0664 80.1445 50.3828 80.2695 49.5859H82.543ZM87.4648 55H85.2734V42.3203H87.4062L87.4648 44.3125V55ZM91.4141 44.2539C91.2266 44.2148 91.0508 44.1914 90.8867 44.1836C90.7305 44.168 90.5508 44.1602 90.3477 44.1602C89.6836 44.1602 89.1211 44.2969 88.6602 44.5703C88.207 44.8438 87.8555 45.2227 87.6055 45.707C87.3555 46.1836 87.1992 46.7305 87.1367 47.3477L86.5156 47.6992C86.5156 46.6758 86.6523 45.7422 86.9258 44.8984C87.1992 44.0469 87.625 43.3672 88.2031 42.8594C88.7891 42.3438 89.5391 42.0859 90.4531 42.0859C90.6016 42.0859 90.7773 42.1055 90.9805 42.1445C91.1914 42.1758 91.3359 42.2109 91.4141 42.25V44.2539ZM98.6797 55.2344C97.5 55.2344 96.4727 54.9727 95.5977 54.4492C94.7305 53.918 94.0547 53.1914 93.5703 52.2695C93.0938 51.3477 92.8555 50.293 92.8555 49.1055V48.6016C92.8555 47.2266 93.1172 46.0547 93.6406 45.0859C94.1719 44.1094 94.8594 43.3672 95.7031 42.8594C96.5547 42.3438 97.4531 42.0859 98.3984 42.0859C99.6172 42.0859 100.609 42.3594 101.375 42.9062C102.148 43.4453 102.715 44.1836 103.074 45.1211C103.441 46.0508 103.625 47.1055 103.625 48.2852V49.2578H94.1562V47.5H101.434V47.3359C101.402 46.7734 101.289 46.2266 101.094 45.6953C100.898 45.1562 100.586 44.7148 100.156 44.3711C99.7266 44.0195 99.1406 43.8438 98.3984 43.8438C97.7422 43.8438 97.1602 44.0312 96.6523 44.4062C96.1523 44.7734 95.7578 45.3125 95.4688 46.0234C95.1875 46.7266 95.0469 47.5859 95.0469 48.6016V49.1055C95.0469 49.9102 95.1953 50.6445 95.4922 51.3086C95.7891 51.9648 96.2188 52.4922 96.7812 52.8906C97.3438 53.2812 98.0156 53.4766 98.7969 53.4766C99.5625 53.4766 100.211 53.3203 100.742 53.0078C101.273 52.6953 101.738 52.2773 102.137 51.7539L103.461 52.7852C103.055 53.4102 102.469 53.9766 101.703 54.4844C100.945 54.9844 99.9375 55.2344 98.6797 55.2344ZM113.633 46.3047C113.633 45.5469 113.406 44.9453 112.953 44.5C112.508 44.0469 111.848 43.8203 110.973 43.8203C110.434 43.8203 109.957 43.9141 109.543 44.1016C109.137 44.2891 108.82 44.5352 108.594 44.8398C108.367 45.1445 108.254 45.4766 108.254 45.8359H106.062C106.062 45.2266 106.27 44.6367 106.684 44.0664C107.098 43.4883 107.68 43.0156 108.43 42.6484C109.188 42.2734 110.078 42.0859 111.102 42.0859C112.023 42.0859 112.84 42.2422 113.551 42.5547C114.262 42.8672 114.816 43.3398 115.215 43.9727C115.621 44.5977 115.824 45.3828 115.824 46.3281V52.2344C115.824 52.6562 115.859 53.1055 115.93 53.582C116.008 54.0586 116.121 54.4688 116.27 54.8125V55H113.984C113.875 54.75 113.789 54.418 113.727 54.0039C113.664 53.582 113.633 53.1914 113.633 52.832V46.3047ZM114.008 48.8359H111.852C110.617 48.8359 109.664 49.0312 108.992 49.4219C108.32 49.8125 107.984 50.3984 107.984 51.1797C107.984 51.7891 108.188 52.3047 108.594 52.7266C109.008 53.1484 109.609 53.3594 110.398 53.3594C111.062 53.3594 111.648 53.2188 112.156 52.9375C112.664 52.6562 113.066 52.3086 113.363 51.8945C113.66 51.4805 113.82 51.082 113.844 50.6992L114.781 51.7422C114.727 52.0703 114.578 52.4336 114.336 52.832C114.094 53.2305 113.77 53.6133 113.363 53.9805C112.965 54.3398 112.488 54.6406 111.934 54.8828C111.387 55.1172 110.77 55.2344 110.082 55.2344C109.223 55.2344 108.469 55.0703 107.82 54.7422C107.18 54.4062 106.68 53.9531 106.32 53.3828C105.969 52.8125 105.793 52.1797 105.793 51.4844C105.793 50.1172 106.309 49.082 107.34 48.3789C108.371 47.668 109.758 47.3125 111.5 47.3125H114.008V48.8359ZM124.566 43.9727H117.699V42.3203H124.566V43.9727ZM122.199 39.2383V51.8594C122.199 52.2969 122.266 52.625 122.398 52.8438C122.531 53.0625 122.703 53.207 122.914 53.2773C123.125 53.3477 123.352 53.3828 123.594 53.3828C123.773 53.3828 123.961 53.3672 124.156 53.3359C124.359 53.3047 124.508 53.2773 124.602 53.2539V55C124.43 55.0547 124.207 55.1055 123.934 55.1523C123.66 55.207 123.328 55.2344 122.938 55.2344C122.406 55.2344 121.918 55.1289 121.473 54.918C121.027 54.707 120.672 54.3555 120.406 53.8633C120.141 53.3633 120.008 52.6914 120.008 51.8477V39.2383H122.199ZM128.434 37.7148C128.855 37.7148 129.176 37.8359 129.395 38.0781C129.621 38.3203 129.734 38.6133 129.734 38.957C129.734 39.293 129.621 39.582 129.395 39.8242C129.176 40.0586 128.855 40.1758 128.434 40.1758C128.012 40.1758 127.691 40.0586 127.473 39.8242C127.262 39.582 127.156 39.293 127.156 38.957C127.156 38.6133 127.262 38.3203 127.473 38.0781C127.691 37.8359 128.012 37.7148 128.434 37.7148ZM129.535 55H127.355V42.3203H129.535V55ZM132.523 48.5312C132.523 47.3047 132.758 46.207 133.227 45.2383C133.695 44.2695 134.359 43.5039 135.219 42.9414C136.078 42.3711 137.098 42.0859 138.277 42.0859C139.473 42.0859 140.504 42.3711 141.371 42.9414C142.238 43.5039 142.902 44.2695 143.363 45.2383C143.832 46.207 144.066 47.3047 144.066 48.5312V48.8008C144.066 50.0195 143.832 51.1172 143.363 52.0938C142.902 53.0625 142.238 53.8281 141.371 54.3906C140.512 54.9531 139.488 55.2344 138.301 55.2344C137.113 55.2344 136.086 54.9531 135.219 54.3906C134.359 53.8281 133.695 53.0625 133.227 52.0938C132.758 51.1172 132.523 50.0195 132.523 48.8008V48.5312ZM134.715 48.8008C134.715 49.6367 134.848 50.4102 135.113 51.1211C135.379 51.832 135.773 52.4023 136.297 52.832C136.828 53.2617 137.496 53.4766 138.301 53.4766C139.098 53.4766 139.758 53.2617 140.281 52.832C140.812 52.4023 141.211 51.832 141.477 51.1211C141.742 50.4102 141.875 49.6367 141.875 48.8008V48.5312C141.875 47.6953 141.742 46.9219 141.477 46.2109C141.211 45.5 140.812 44.9297 140.281 44.5C139.75 44.0625 139.082 43.8438 138.277 43.8438C137.488 43.8438 136.828 44.0625 136.297 44.5C135.766 44.9297 135.367 45.5 135.102 46.2109C134.844 46.9219 134.715 47.6953 134.715 48.5312V48.8008ZM148.988 55H146.797V42.3203H148.871L148.988 45.0273V55ZM147.559 48.1328C147.574 46.9766 147.797 45.9453 148.227 45.0391C148.656 44.125 149.254 43.4062 150.02 42.8828C150.793 42.3516 151.691 42.0859 152.715 42.0859C153.551 42.0859 154.27 42.2422 154.871 42.5547C155.48 42.8594 155.949 43.3477 156.277 44.0195C156.613 44.6914 156.781 45.582 156.781 46.6914V55H154.59V46.668C154.59 46.0039 154.492 45.4688 154.297 45.0625C154.109 44.6562 153.828 44.3633 153.453 44.1836C153.078 43.9961 152.617 43.9023 152.07 43.9023C151.531 43.9023 151.043 44.0156 150.605 44.2422C150.168 44.4688 149.789 44.7812 149.469 45.1797C149.148 45.5781 148.902 46.0352 148.73 46.5508C148.559 47.0586 148.473 47.5977 148.473 48.168L147.559 48.1328ZM164.727 55.2344C163.609 55.2344 162.664 55.0352 161.891 54.6367C161.117 54.2383 160.531 53.7266 160.133 53.1016C159.734 52.4688 159.535 51.8008 159.535 51.0977H161.727C161.766 51.6914 161.938 52.1641 162.242 52.5156C162.555 52.8594 162.934 53.1055 163.379 53.2539C163.832 53.4023 164.281 53.4766 164.727 53.4766C165.32 53.4766 165.816 53.3984 166.215 53.2422C166.621 53.0781 166.926 52.8594 167.129 52.5859C167.34 52.3047 167.445 51.9883 167.445 51.6367C167.445 51.3242 167.375 51.0352 167.234 50.7695C167.102 50.4961 166.828 50.25 166.414 50.0312C166 49.8047 165.375 49.6055 164.539 49.4336C163.602 49.2383 162.789 48.9922 162.102 48.6953C161.422 48.3906 160.895 48.0039 160.52 47.5352C160.152 47.0664 159.969 46.4844 159.969 45.7891C159.969 45.1172 160.16 44.5039 160.543 43.9492C160.934 43.3867 161.48 42.9375 162.184 42.6016C162.895 42.2578 163.723 42.0859 164.668 42.0859C165.684 42.0859 166.551 42.2656 167.27 42.625C167.996 42.9766 168.551 43.4531 168.934 44.0547C169.316 44.6484 169.508 45.3086 169.508 46.0352H167.316C167.316 45.5117 167.086 45.0156 166.625 44.5469C166.172 44.0781 165.52 43.8438 164.668 43.8438C164.074 43.8438 163.59 43.9375 163.215 44.125C162.848 44.3047 162.578 44.5391 162.406 44.8281C162.242 45.1094 162.16 45.4062 162.16 45.7188C162.16 46.0312 162.238 46.3047 162.395 46.5391C162.551 46.7656 162.836 46.9688 163.25 47.1484C163.672 47.3281 164.281 47.5078 165.078 47.6875C166.117 47.9219 166.973 48.2031 167.645 48.5312C168.316 48.8594 168.816 49.2617 169.145 49.7383C169.473 50.2148 169.637 50.7969 169.637 51.4844C169.637 52.2188 169.434 52.8711 169.027 53.4414C168.621 54.0039 168.051 54.4453 167.316 54.7656C166.582 55.0781 165.719 55.2344 164.727 55.2344Z" fill="#353535"/>
</svg>
