<svg width="179" height="63" viewBox="0 0 179 63" fill="none" xmlns="http://www.w3.org/2000/svg">
<rect width="60" height="63" rx="5" fill="#FFF9DD"/>
<path d="M47 28.5H45.5V15C45.5 14.6022 45.342 14.2206 45.0607 13.9393C44.7794 13.658 44.3978 13.5 44 13.5H14C13.6022 13.5 13.2206 13.658 12.9393 13.9393C12.658 14.2206 12.5 14.6022 12.5 15V28.5H11C10.6022 28.5 10.2206 28.658 9.93934 28.9393C9.65804 29.2206 9.5 29.6022 9.5 30V48C9.5 48.3978 9.65804 48.7794 9.93934 49.0607C10.2206 49.342 10.6022 49.5 11 49.5H14V51C14 51.3978 14.158 51.7794 14.4393 52.0607C14.7206 52.342 15.1022 52.5 15.5 52.5C15.8978 52.5 16.2794 52.342 16.5607 52.0607C16.842 51.7794 17 51.3978 17 51V49.5H41V51C41 51.3978 41.158 51.7794 41.4393 52.0607C41.7206 52.342 42.1022 52.5 42.5 52.5C42.8978 52.5 43.2794 52.342 43.5607 52.0607C43.842 51.7794 44 51.3978 44 51V49.5H47C47.3978 49.5 47.7794 49.342 48.0607 49.0607C48.342 48.7794 48.5 48.3978 48.5 48V30C48.5 29.6022 48.342 29.2206 48.0607 28.9393C47.7794 28.658 47.3978 28.5 47 28.5ZM15.5 16.5H42.5V28.5H39.5C39.1022 28.5 38.7206 28.658 38.4393 28.9393C38.158 29.2206 38 29.6022 38 30V34.5H20V30C20 29.6022 19.842 29.2206 19.5607 28.9393C19.2794 28.658 18.8978 28.5 18.5 28.5H15.5V16.5ZM20 37.5H38V40.5H20V37.5ZM45.5 46.5H12.5V31.5H17V42C17 42.3978 17.158 42.7794 17.4393 43.0607C17.7206 43.342 18.1022 43.5 18.5 43.5H39.5C39.8978 43.5 40.2794 43.342 40.5607 43.0607C40.842 42.7794 41 42.3978 41 42V31.5H45.5V46.5Z" fill="#D8CFAA"/>
<path d="M78.6719 25H76.3281L82.8438 7.9375H84.3086V9.4375L78.6719 25ZM83.3711 9.4375V7.9375H84.8359L91.3633 25H89.0312L83.3711 9.4375ZM88.75 20.5352H79.1523V18.6953H88.75V20.5352ZM95.5117 25H93.3203V12.3203H95.4531L95.5117 14.3125V25ZM99.4609 14.2539C99.2734 14.2148 99.0977 14.1914 98.9336 14.1836C98.7773 14.168 98.5977 14.1602 98.3945 14.1602C97.7305 14.1602 97.168 14.2969 96.707 14.5703C96.2539 14.8438 95.9023 15.2227 95.6523 15.707C95.4023 16.1836 95.2461 16.7305 95.1836 17.3477L94.5625 17.6992C94.5625 16.6758 94.6992 15.7422 94.9727 14.8984C95.2461 14.0469 95.6719 13.3672 96.25 12.8594C96.8359 12.3438 97.5859 12.0859 98.5 12.0859C98.6484 12.0859 98.8242 12.1055 99.0273 12.1445C99.2383 12.1758 99.3828 12.2109 99.4609 12.25V14.2539ZM107.371 13.9727H100.504V12.3203H107.371V13.9727ZM105.004 9.23828V21.8594C105.004 22.2969 105.07 22.625 105.203 22.8438C105.336 23.0625 105.508 23.207 105.719 23.2773C105.93 23.3477 106.156 23.3828 106.398 23.3828C106.578 23.3828 106.766 23.3672 106.961 23.3359C107.164 23.3047 107.312 23.2773 107.406 23.2539V25C107.234 25.0547 107.012 25.1055 106.738 25.1523C106.465 25.207 106.133 25.2344 105.742 25.2344C105.211 25.2344 104.723 25.1289 104.277 24.918C103.832 24.707 103.477 24.3555 103.211 23.8633C102.945 23.3633 102.812 22.6914 102.812 21.8477V9.23828H105.004ZM111.238 7.71484C111.66 7.71484 111.98 7.83594 112.199 8.07812C112.426 8.32031 112.539 8.61328 112.539 8.95703C112.539 9.29297 112.426 9.58203 112.199 9.82422C111.98 10.0586 111.66 10.1758 111.238 10.1758C110.816 10.1758 110.496 10.0586 110.277 9.82422C110.066 9.58203 109.961 9.29297 109.961 8.95703C109.961 8.61328 110.066 8.32031 110.277 8.07812C110.496 7.83594 110.816 7.71484 111.238 7.71484ZM112.34 25H110.16V12.3203H112.34V25ZM120.555 25.2344C119.438 25.2344 118.492 25.0352 117.719 24.6367C116.945 24.2383 116.359 23.7266 115.961 23.1016C115.562 22.4688 115.363 21.8008 115.363 21.0977H117.555C117.594 21.6914 117.766 22.1641 118.07 22.5156C118.383 22.8594 118.762 23.1055 119.207 23.2539C119.66 23.4023 120.109 23.4766 120.555 23.4766C121.148 23.4766 121.645 23.3984 122.043 23.2422C122.449 23.0781 122.754 22.8594 122.957 22.5859C123.168 22.3047 123.273 21.9883 123.273 21.6367C123.273 21.3242 123.203 21.0352 123.062 20.7695C122.93 20.4961 122.656 20.25 122.242 20.0312C121.828 19.8047 121.203 19.6055 120.367 19.4336C119.43 19.2383 118.617 18.9922 117.93 18.6953C117.25 18.3906 116.723 18.0039 116.348 17.5352C115.98 17.0664 115.797 16.4844 115.797 15.7891C115.797 15.1172 115.988 14.5039 116.371 13.9492C116.762 13.3867 117.309 12.9375 118.012 12.6016C118.723 12.2578 119.551 12.0859 120.496 12.0859C121.512 12.0859 122.379 12.2656 123.098 12.625C123.824 12.9766 124.379 13.4531 124.762 14.0547C125.145 14.6484 125.336 15.3086 125.336 16.0352H123.145C123.145 15.5117 122.914 15.0156 122.453 14.5469C122 14.0781 121.348 13.8438 120.496 13.8438C119.902 13.8438 119.418 13.9375 119.043 14.125C118.676 14.3047 118.406 14.5391 118.234 14.8281C118.07 15.1094 117.988 15.4062 117.988 15.7188C117.988 16.0312 118.066 16.3047 118.223 16.5391C118.379 16.7656 118.664 16.9688 119.078 17.1484C119.5 17.3281 120.109 17.5078 120.906 17.6875C121.945 17.9219 122.801 18.2031 123.473 18.5312C124.145 18.8594 124.645 19.2617 124.973 19.7383C125.301 20.2148 125.465 20.7969 125.465 21.4844C125.465 22.2188 125.262 22.8711 124.855 23.4414C124.449 24.0039 123.879 24.4453 123.145 24.7656C122.41 25.0781 121.547 25.2344 120.555 25.2344ZM135.766 16.3047C135.766 15.5469 135.539 14.9453 135.086 14.5C134.641 14.0469 133.98 13.8203 133.105 13.8203C132.566 13.8203 132.09 13.9141 131.676 14.1016C131.27 14.2891 130.953 14.5352 130.727 14.8398C130.5 15.1445 130.387 15.4766 130.387 15.8359H128.195C128.195 15.2266 128.402 14.6367 128.816 14.0664C129.23 13.4883 129.812 13.0156 130.562 12.6484C131.32 12.2734 132.211 12.0859 133.234 12.0859C134.156 12.0859 134.973 12.2422 135.684 12.5547C136.395 12.8672 136.949 13.3398 137.348 13.9727C137.754 14.5977 137.957 15.3828 137.957 16.3281V22.2344C137.957 22.6562 137.992 23.1055 138.062 23.582C138.141 24.0586 138.254 24.4688 138.402 24.8125V25H136.117C136.008 24.75 135.922 24.418 135.859 24.0039C135.797 23.582 135.766 23.1914 135.766 22.832V16.3047ZM136.141 18.8359H133.984C132.75 18.8359 131.797 19.0312 131.125 19.4219C130.453 19.8125 130.117 20.3984 130.117 21.1797C130.117 21.7891 130.32 22.3047 130.727 22.7266C131.141 23.1484 131.742 23.3594 132.531 23.3594C133.195 23.3594 133.781 23.2188 134.289 22.9375C134.797 22.6562 135.199 22.3086 135.496 21.8945C135.793 21.4805 135.953 21.082 135.977 20.6992L136.914 21.7422C136.859 22.0703 136.711 22.4336 136.469 22.832C136.227 23.2305 135.902 23.6133 135.496 23.9805C135.098 24.3398 134.621 24.6406 134.066 24.8828C133.52 25.1172 132.902 25.2344 132.215 25.2344C131.355 25.2344 130.602 25.0703 129.953 24.7422C129.312 24.4062 128.812 23.9531 128.453 23.3828C128.102 22.8125 127.926 22.1797 127.926 21.4844C127.926 20.1172 128.441 19.082 129.473 18.3789C130.504 17.668 131.891 17.3125 133.633 17.3125H136.141V18.8359ZM143.559 25H141.367V12.3203H143.441L143.559 15.0273V25ZM142.129 18.1328C142.145 16.9766 142.367 15.9453 142.797 15.0391C143.227 14.125 143.824 13.4062 144.59 12.8828C145.363 12.3516 146.262 12.0859 147.285 12.0859C148.121 12.0859 148.84 12.2422 149.441 12.5547C150.051 12.8594 150.52 13.3477 150.848 14.0195C151.184 14.6914 151.352 15.582 151.352 16.6914V25H149.16V16.668C149.16 16.0039 149.062 15.4688 148.867 15.0625C148.68 14.6562 148.398 14.3633 148.023 14.1836C147.648 13.9961 147.188 13.9023 146.641 13.9023C146.102 13.9023 145.613 14.0156 145.176 14.2422C144.738 14.4688 144.359 14.7812 144.039 15.1797C143.719 15.5781 143.473 16.0352 143.301 16.5508C143.129 17.0586 143.043 17.5977 143.043 18.168L142.129 18.1328ZM90.543 49.5859C90.4258 50.6562 90.1172 51.6211 89.6172 52.4805C89.1172 53.332 88.4102 54.0039 87.4961 54.4961C86.582 54.9883 85.4375 55.2344 84.0625 55.2344C82.7266 55.2344 81.5586 54.9102 80.5586 54.2617C79.5586 53.6055 78.7812 52.6836 78.2266 51.4961C77.6719 50.3086 77.3945 48.9219 77.3945 47.3359V45.6133C77.3945 44.0195 77.6719 42.6328 78.2266 41.4531C78.7891 40.2656 79.5859 39.3438 80.6172 38.6875C81.6484 38.0312 82.8672 37.7031 84.2734 37.7031C85.5625 37.7031 86.6523 37.9453 87.543 38.4297C88.4336 38.9062 89.125 39.5742 89.6172 40.4336C90.1172 41.293 90.4258 42.2852 90.543 43.4102H88.2695C88.0977 42.2148 87.7148 41.2734 87.1211 40.5859C86.5352 39.8906 85.5859 39.543 84.2734 39.543C83.2656 39.543 82.4219 39.7969 81.7422 40.3047C81.0625 40.8047 80.5469 41.5078 80.1953 42.4141C79.8516 43.3203 79.6797 44.3789 79.6797 45.5898V47.3359C79.6797 48.4531 79.8359 49.4727 80.1484 50.3945C80.4609 51.3086 80.9375 52.0391 81.5781 52.5859C82.2266 53.1328 83.0547 53.4062 84.0625 53.4062C85.0234 53.4062 85.7852 53.2539 86.3477 52.9492C86.918 52.6445 87.3477 52.207 87.6367 51.6367C87.9336 51.0664 88.1445 50.3828 88.2695 49.5859H90.543ZM95.4648 55H93.2734V42.3203H95.4062L95.4648 44.3125V55ZM99.4141 44.2539C99.2266 44.2148 99.0508 44.1914 98.8867 44.1836C98.7305 44.168 98.5508 44.1602 98.3477 44.1602C97.6836 44.1602 97.1211 44.2969 96.6602 44.5703C96.207 44.8438 95.8555 45.2227 95.6055 45.707C95.3555 46.1836 95.1992 46.7305 95.1367 47.3477L94.5156 47.6992C94.5156 46.6758 94.6523 45.7422 94.9258 44.8984C95.1992 44.0469 95.625 43.3672 96.2031 42.8594C96.7891 42.3438 97.5391 42.0859 98.4531 42.0859C98.6016 42.0859 98.7773 42.1055 98.9805 42.1445C99.1914 42.1758 99.3359 42.2109 99.4141 42.25V44.2539ZM106.68 55.2344C105.5 55.2344 104.473 54.9727 103.598 54.4492C102.73 53.918 102.055 53.1914 101.57 52.2695C101.094 51.3477 100.855 50.293 100.855 49.1055V48.6016C100.855 47.2266 101.117 46.0547 101.641 45.0859C102.172 44.1094 102.859 43.3672 103.703 42.8594C104.555 42.3438 105.453 42.0859 106.398 42.0859C107.617 42.0859 108.609 42.3594 109.375 42.9062C110.148 43.4453 110.715 44.1836 111.074 45.1211C111.441 46.0508 111.625 47.1055 111.625 48.2852V49.2578H102.156V47.5H109.434V47.3359C109.402 46.7734 109.289 46.2266 109.094 45.6953C108.898 45.1562 108.586 44.7148 108.156 44.3711C107.727 44.0195 107.141 43.8438 106.398 43.8438C105.742 43.8438 105.16 44.0312 104.652 44.4062C104.152 44.7734 103.758 45.3125 103.469 46.0234C103.188 46.7266 103.047 47.5859 103.047 48.6016V49.1055C103.047 49.9102 103.195 50.6445 103.492 51.3086C103.789 51.9648 104.219 52.4922 104.781 52.8906C105.344 53.2812 106.016 53.4766 106.797 53.4766C107.562 53.4766 108.211 53.3203 108.742 53.0078C109.273 52.6953 109.738 52.2773 110.137 51.7539L111.461 52.7852C111.055 53.4102 110.469 53.9766 109.703 54.4844C108.945 54.9844 107.938 55.2344 106.68 55.2344ZM121.633 46.3047C121.633 45.5469 121.406 44.9453 120.953 44.5C120.508 44.0469 119.848 43.8203 118.973 43.8203C118.434 43.8203 117.957 43.9141 117.543 44.1016C117.137 44.2891 116.82 44.5352 116.594 44.8398C116.367 45.1445 116.254 45.4766 116.254 45.8359H114.062C114.062 45.2266 114.27 44.6367 114.684 44.0664C115.098 43.4883 115.68 43.0156 116.43 42.6484C117.188 42.2734 118.078 42.0859 119.102 42.0859C120.023 42.0859 120.84 42.2422 121.551 42.5547C122.262 42.8672 122.816 43.3398 123.215 43.9727C123.621 44.5977 123.824 45.3828 123.824 46.3281V52.2344C123.824 52.6562 123.859 53.1055 123.93 53.582C124.008 54.0586 124.121 54.4688 124.27 54.8125V55H121.984C121.875 54.75 121.789 54.418 121.727 54.0039C121.664 53.582 121.633 53.1914 121.633 52.832V46.3047ZM122.008 48.8359H119.852C118.617 48.8359 117.664 49.0312 116.992 49.4219C116.32 49.8125 115.984 50.3984 115.984 51.1797C115.984 51.7891 116.188 52.3047 116.594 52.7266C117.008 53.1484 117.609 53.3594 118.398 53.3594C119.062 53.3594 119.648 53.2188 120.156 52.9375C120.664 52.6562 121.066 52.3086 121.363 51.8945C121.66 51.4805 121.82 51.082 121.844 50.6992L122.781 51.7422C122.727 52.0703 122.578 52.4336 122.336 52.832C122.094 53.2305 121.77 53.6133 121.363 53.9805C120.965 54.3398 120.488 54.6406 119.934 54.8828C119.387 55.1172 118.77 55.2344 118.082 55.2344C117.223 55.2344 116.469 55.0703 115.82 54.7422C115.18 54.4062 114.68 53.9531 114.32 53.3828C113.969 52.8125 113.793 52.1797 113.793 51.4844C113.793 50.1172 114.309 49.082 115.34 48.3789C116.371 47.668 117.758 47.3125 119.5 47.3125H122.008V48.8359ZM132.566 43.9727H125.699V42.3203H132.566V43.9727ZM130.199 39.2383V51.8594C130.199 52.2969 130.266 52.625 130.398 52.8438C130.531 53.0625 130.703 53.207 130.914 53.2773C131.125 53.3477 131.352 53.3828 131.594 53.3828C131.773 53.3828 131.961 53.3672 132.156 53.3359C132.359 53.3047 132.508 53.2773 132.602 53.2539V55C132.43 55.0547 132.207 55.1055 131.934 55.1523C131.66 55.207 131.328 55.2344 130.938 55.2344C130.406 55.2344 129.918 55.1289 129.473 54.918C129.027 54.707 128.672 54.3555 128.406 53.8633C128.141 53.3633 128.008 52.6914 128.008 51.8477V39.2383H130.199ZM136.434 37.7148C136.855 37.7148 137.176 37.8359 137.395 38.0781C137.621 38.3203 137.734 38.6133 137.734 38.957C137.734 39.293 137.621 39.582 137.395 39.8242C137.176 40.0586 136.855 40.1758 136.434 40.1758C136.012 40.1758 135.691 40.0586 135.473 39.8242C135.262 39.582 135.156 39.293 135.156 38.957C135.156 38.6133 135.262 38.3203 135.473 38.0781C135.691 37.8359 136.012 37.7148 136.434 37.7148ZM137.535 55H135.355V42.3203H137.535V55ZM140.523 48.5312C140.523 47.3047 140.758 46.207 141.227 45.2383C141.695 44.2695 142.359 43.5039 143.219 42.9414C144.078 42.3711 145.098 42.0859 146.277 42.0859C147.473 42.0859 148.504 42.3711 149.371 42.9414C150.238 43.5039 150.902 44.2695 151.363 45.2383C151.832 46.207 152.066 47.3047 152.066 48.5312V48.8008C152.066 50.0195 151.832 51.1172 151.363 52.0938C150.902 53.0625 150.238 53.8281 149.371 54.3906C148.512 54.9531 147.488 55.2344 146.301 55.2344C145.113 55.2344 144.086 54.9531 143.219 54.3906C142.359 53.8281 141.695 53.0625 141.227 52.0938C140.758 51.1172 140.523 50.0195 140.523 48.8008V48.5312ZM142.715 48.8008C142.715 49.6367 142.848 50.4102 143.113 51.1211C143.379 51.832 143.773 52.4023 144.297 52.832C144.828 53.2617 145.496 53.4766 146.301 53.4766C147.098 53.4766 147.758 53.2617 148.281 52.832C148.812 52.4023 149.211 51.832 149.477 51.1211C149.742 50.4102 149.875 49.6367 149.875 48.8008V48.5312C149.875 47.6953 149.742 46.9219 149.477 46.2109C149.211 45.5 148.812 44.9297 148.281 44.5C147.75 44.0625 147.082 43.8438 146.277 43.8438C145.488 43.8438 144.828 44.0625 144.297 44.5C143.766 44.9297 143.367 45.5 143.102 46.2109C142.844 46.9219 142.715 47.6953 142.715 48.5312V48.8008ZM156.988 55H154.797V42.3203H156.871L156.988 45.0273V55ZM155.559 48.1328C155.574 46.9766 155.797 45.9453 156.227 45.0391C156.656 44.125 157.254 43.4062 158.02 42.8828C158.793 42.3516 159.691 42.0859 160.715 42.0859C161.551 42.0859 162.27 42.2422 162.871 42.5547C163.48 42.8594 163.949 43.3477 164.277 44.0195C164.613 44.6914 164.781 45.582 164.781 46.6914V55H162.59V46.668C162.59 46.0039 162.492 45.4688 162.297 45.0625C162.109 44.6562 161.828 44.3633 161.453 44.1836C161.078 43.9961 160.617 43.9023 160.07 43.9023C159.531 43.9023 159.043 44.0156 158.605 44.2422C158.168 44.4688 157.789 44.7812 157.469 45.1797C157.148 45.5781 156.902 46.0352 156.73 46.5508C156.559 47.0586 156.473 47.5977 156.473 48.168L155.559 48.1328ZM172.727 55.2344C171.609 55.2344 170.664 55.0352 169.891 54.6367C169.117 54.2383 168.531 53.7266 168.133 53.1016C167.734 52.4688 167.535 51.8008 167.535 51.0977H169.727C169.766 51.6914 169.938 52.1641 170.242 52.5156C170.555 52.8594 170.934 53.1055 171.379 53.2539C171.832 53.4023 172.281 53.4766 172.727 53.4766C173.32 53.4766 173.816 53.3984 174.215 53.2422C174.621 53.0781 174.926 52.8594 175.129 52.5859C175.34 52.3047 175.445 51.9883 175.445 51.6367C175.445 51.3242 175.375 51.0352 175.234 50.7695C175.102 50.4961 174.828 50.25 174.414 50.0312C174 49.8047 173.375 49.6055 172.539 49.4336C171.602 49.2383 170.789 48.9922 170.102 48.6953C169.422 48.3906 168.895 48.0039 168.52 47.5352C168.152 47.0664 167.969 46.4844 167.969 45.7891C167.969 45.1172 168.16 44.5039 168.543 43.9492C168.934 43.3867 169.48 42.9375 170.184 42.6016C170.895 42.2578 171.723 42.0859 172.668 42.0859C173.684 42.0859 174.551 42.2656 175.27 42.625C175.996 42.9766 176.551 43.4531 176.934 44.0547C177.316 44.6484 177.508 45.3086 177.508 46.0352H175.316C175.316 45.5117 175.086 45.0156 174.625 44.5469C174.172 44.0781 173.52 43.8438 172.668 43.8438C172.074 43.8438 171.59 43.9375 171.215 44.125C170.848 44.3047 170.578 44.5391 170.406 44.8281C170.242 45.1094 170.16 45.4062 170.16 45.7188C170.16 46.0312 170.238 46.3047 170.395 46.5391C170.551 46.7656 170.836 46.9688 171.25 47.1484C171.672 47.3281 172.281 47.5078 173.078 47.6875C174.117 47.9219 174.973 48.2031 175.645 48.5312C176.316 48.8594 176.816 49.2617 177.145 49.7383C177.473 50.2148 177.637 50.7969 177.637 51.4844C177.637 52.2188 177.434 52.8711 177.027 53.4414C176.621 54.0039 176.051 54.4453 175.316 54.7656C174.582 55.0781 173.719 55.2344 172.727 55.2344Z" fill="#636363"/>
</svg>
